<mxfile host="app.diagrams.net" agent="Mozilla/5.0 (Macintosh; Intel Mac OS X 10_15_7) AppleWebKit/537.36 (KHTML, like Gecko) Chrome/129.0.0.0 Safari/537.36" version="24.8.2">
  <diagram name="Page-1" id="T6b0QDDt3_OT0mwsR_Ze">
    <mxGraphModel dx="1224" dy="774" grid="1" gridSize="10" guides="1" tooltips="1" connect="1" arrows="1" fold="1" page="1" pageScale="1" pageWidth="850" pageHeight="1100" math="0" shadow="0">
      <root>
        <mxCell id="0" />
        <mxCell id="1" parent="0" />
        <mxCell id="bA5UnjsFuITjD8SUiumk-10" style="edgeStyle=orthogonalEdgeStyle;rounded=0;orthogonalLoop=1;jettySize=auto;html=1;exitX=0;exitY=0.75;exitDx=0;exitDy=0;" edge="1" parent="1" source="bA5UnjsFuITjD8SUiumk-1" target="bA5UnjsFuITjD8SUiumk-7">
          <mxGeometry relative="1" as="geometry" />
        </mxCell>
        <mxCell id="bA5UnjsFuITjD8SUiumk-11" style="edgeStyle=orthogonalEdgeStyle;rounded=0;orthogonalLoop=1;jettySize=auto;html=1;exitX=0;exitY=0.25;exitDx=0;exitDy=0;entryX=0;entryY=0.5;entryDx=0;entryDy=0;" edge="1" parent="1" source="bA5UnjsFuITjD8SUiumk-1" target="bA5UnjsFuITjD8SUiumk-6">
          <mxGeometry relative="1" as="geometry" />
        </mxCell>
        <mxCell id="bA5UnjsFuITjD8SUiumk-1" value="&lt;div&gt;&lt;br&gt;&lt;/div&gt;Option Swap&lt;div&gt;Contract&lt;/div&gt;" style="triangle;whiteSpace=wrap;html=1;rotation=-180;fillColor=#008a00;strokeColor=#005700;fontColor=#ffffff;textDirection=vertical-rl;verticalAlign=middle;" vertex="1" parent="1">
          <mxGeometry x="360" y="300" width="90" height="200" as="geometry" />
        </mxCell>
        <mxCell id="bA5UnjsFuITjD8SUiumk-5" value="" style="edgeStyle=orthogonalEdgeStyle;rounded=0;orthogonalLoop=1;jettySize=auto;html=1;" edge="1" parent="1" source="bA5UnjsFuITjD8SUiumk-4" target="bA5UnjsFuITjD8SUiumk-1">
          <mxGeometry relative="1" as="geometry" />
        </mxCell>
        <mxCell id="bA5UnjsFuITjD8SUiumk-4" value="&lt;font color=&quot;#000000&quot;&gt;wETH&lt;/font&gt;" style="ellipse;whiteSpace=wrap;html=1;aspect=fixed;fillColor=#F7F76E;fontColor=#ffffff;strokeColor=#FFFA61;" vertex="1" parent="1">
          <mxGeometry x="240" y="360" width="80" height="80" as="geometry" />
        </mxCell>
        <mxCell id="bA5UnjsFuITjD8SUiumk-6" value="&lt;font color=&quot;#000000&quot;&gt;Collateral&lt;/font&gt;&lt;div style=&quot;color: rgb(255, 255, 255);&quot;&gt;&lt;font color=&quot;#000000&quot;&gt;wETH&lt;/font&gt;&lt;/div&gt;&lt;div style=&quot;color: rgb(255, 255, 255);&quot;&gt;&lt;font color=&quot;#000000&quot;&gt;2025-01-01&lt;/font&gt;&lt;/div&gt;&lt;div style=&quot;color: rgb(255, 255, 255);&quot;&gt;&lt;font color=&quot;#000000&quot;&gt;3000&lt;/font&gt;&lt;/div&gt;" style="ellipse;whiteSpace=wrap;html=1;aspect=fixed;fillColor=#fa6800;fontColor=#000000;strokeColor=#C73500;" vertex="1" parent="1">
          <mxGeometry x="530" y="410" width="80" height="80" as="geometry" />
        </mxCell>
        <mxCell id="bA5UnjsFuITjD8SUiumk-7" value="&lt;font color=&quot;#000000&quot;&gt;Option&lt;/font&gt;&lt;div&gt;&lt;font color=&quot;#000000&quot;&gt;wETH&lt;/font&gt;&lt;/div&gt;&lt;div&gt;&lt;font color=&quot;#000000&quot;&gt;2025-01-01&lt;/font&gt;&lt;/div&gt;&lt;div&gt;&lt;font color=&quot;#000000&quot;&gt;3000&lt;/font&gt;&lt;/div&gt;" style="ellipse;whiteSpace=wrap;html=1;aspect=fixed;fillColor=#1ba1e2;fontColor=#ffffff;strokeColor=#006EAF;" vertex="1" parent="1">
          <mxGeometry x="530" y="310" width="80" height="80" as="geometry" />
        </mxCell>
        <mxCell id="bA5UnjsFuITjD8SUiumk-12" value="ERC20" style="text;html=1;align=center;verticalAlign=middle;resizable=0;points=[];autosize=1;strokeColor=none;fillColor=none;" vertex="1" parent="1">
          <mxGeometry x="590" y="370" width="60" height="30" as="geometry" />
        </mxCell>
        <mxCell id="bA5UnjsFuITjD8SUiumk-13" value="ERC20" style="text;html=1;align=center;verticalAlign=middle;resizable=0;points=[];autosize=1;strokeColor=none;fillColor=none;" vertex="1" parent="1">
          <mxGeometry x="590" y="470" width="60" height="30" as="geometry" />
        </mxCell>
        <mxCell id="bA5UnjsFuITjD8SUiumk-14" value="ERC20" style="text;html=1;align=center;verticalAlign=middle;resizable=0;points=[];autosize=1;strokeColor=none;fillColor=none;" vertex="1" parent="1">
          <mxGeometry x="280" y="430" width="60" height="30" as="geometry" />
        </mxCell>
        <mxCell id="bA5UnjsFuITjD8SUiumk-15" value="&lt;font color=&quot;#000000&quot;&gt;Option&lt;/font&gt;&lt;div&gt;&lt;font color=&quot;#000000&quot;&gt;wETH&lt;/font&gt;&lt;/div&gt;&lt;div&gt;&lt;font color=&quot;#000000&quot;&gt;2025-01-01&lt;/font&gt;&lt;/div&gt;&lt;div&gt;&lt;font color=&quot;#000000&quot;&gt;3000&lt;/font&gt;&lt;/div&gt;" style="ellipse;whiteSpace=wrap;html=1;aspect=fixed;fillColor=#1ba1e2;fontColor=#ffffff;strokeColor=#006EAF;" vertex="1" parent="1">
          <mxGeometry x="270" y="630" width="80" height="80" as="geometry" />
        </mxCell>
        <mxCell id="bA5UnjsFuITjD8SUiumk-17" value="&lt;font color=&quot;#000000&quot;&gt;USDC&lt;/font&gt;" style="ellipse;whiteSpace=wrap;html=1;aspect=fixed;fillColor=#20E267;fontColor=#ffffff;strokeColor=#006EAF;" vertex="1" parent="1">
          <mxGeometry x="550" y="630" width="80" height="80" as="geometry" />
        </mxCell>
        <mxCell id="bA5UnjsFuITjD8SUiumk-18" value="" style="shape=flexArrow;endArrow=classic;startArrow=classic;html=1;rounded=0;fillColor=#fad9d5;strokeColor=#ae4132;" edge="1" parent="1">
          <mxGeometry width="100" height="100" relative="1" as="geometry">
            <mxPoint x="340" y="700" as="sourcePoint" />
            <mxPoint x="560" y="700" as="targetPoint" />
          </mxGeometry>
        </mxCell>
        <mxCell id="bA5UnjsFuITjD8SUiumk-19" value="Market" style="rhombus;whiteSpace=wrap;html=1;fillColor=#fad9d5;strokeColor=#ae4132;" vertex="1" parent="1">
          <mxGeometry x="410" y="610" width="80" height="80" as="geometry" />
        </mxCell>
        <mxCell id="bA5UnjsFuITjD8SUiumk-20" value="&lt;font color=&quot;#000000&quot;&gt;Option&lt;/font&gt;&lt;div&gt;&lt;font color=&quot;#000000&quot;&gt;wETH&lt;/font&gt;&lt;/div&gt;&lt;div&gt;&lt;font color=&quot;#000000&quot;&gt;2025-01-01&lt;/font&gt;&lt;/div&gt;&lt;div&gt;&lt;font color=&quot;#000000&quot;&gt;3000&lt;/font&gt;&lt;/div&gt;" style="ellipse;whiteSpace=wrap;html=1;aspect=fixed;fillColor=#1ba1e2;fontColor=#ffffff;strokeColor=#006EAF;" vertex="1" parent="1">
          <mxGeometry x="260" y="820" width="80" height="80" as="geometry" />
        </mxCell>
        <mxCell id="bA5UnjsFuITjD8SUiumk-22" value="&lt;font color=&quot;#000000&quot;&gt;USDC&lt;/font&gt;" style="ellipse;whiteSpace=wrap;html=1;aspect=fixed;fillColor=#20E267;fontColor=#ffffff;strokeColor=#006EAF;" vertex="1" parent="1">
          <mxGeometry x="260" y="960" width="80" height="80" as="geometry" />
        </mxCell>
        <mxCell id="bA5UnjsFuITjD8SUiumk-23" value="" style="shape=flexArrow;endArrow=classic;html=1;rounded=0;" edge="1" parent="1">
          <mxGeometry width="50" height="50" relative="1" as="geometry">
            <mxPoint x="390" y="940" as="sourcePoint" />
            <mxPoint x="460" y="940" as="targetPoint" />
          </mxGeometry>
        </mxCell>
        <mxCell id="bA5UnjsFuITjD8SUiumk-24" value="&lt;font color=&quot;#000000&quot;&gt;Exercise&lt;/font&gt;" style="rounded=0;whiteSpace=wrap;html=1;fillColor=#1ba1e2;fontColor=#ffffff;strokeColor=#006EAF;" vertex="1" parent="1">
          <mxGeometry x="320" y="880" width="70" height="30" as="geometry" />
        </mxCell>
        <mxCell id="bA5UnjsFuITjD8SUiumk-25" value="" style="shape=cross;whiteSpace=wrap;html=1;fillColor=#333333;" vertex="1" parent="1">
          <mxGeometry x="280" y="910" width="40" height="40" as="geometry" />
        </mxCell>
        <mxCell id="bA5UnjsFuITjD8SUiumk-27" value="&lt;font color=&quot;#000000&quot;&gt;wETH&lt;/font&gt;" style="ellipse;whiteSpace=wrap;html=1;aspect=fixed;fillColor=#F7F76E;fontColor=#ffffff;strokeColor=#FFFA61;" vertex="1" parent="1">
          <mxGeometry x="490" y="900" width="80" height="80" as="geometry" />
        </mxCell>
      </root>
    </mxGraphModel>
  </diagram>
</mxfile>
